<?xml version="1.0" encoding="utf-8"?>
<!-- Generator: Adobe Illustrator 26.5.2, SVG Export Plug-In . SVG Version: 6.00 Build 0)  -->
<svg version="1.1" id="_x30_" xmlns="http://www.w3.org/2000/svg" xmlns:xlink="http://www.w3.org/1999/xlink" x="0px" y="0px"
	 viewBox="0 0 144 72" style="enable-background:new 0 0 144 72;" xml:space="preserve">
<style type="text/css">
	.st0{fill:#C02126;}
	.st1{fill:#FFFFFF;}
</style>
<rect x="36" class="st0" width="72" height="72"/>
<rect class="st0" width="144" height="72"/>
<path class="st1" d="M94,47.9c2.1-1.1,4.2-2.4,6.1-3.9l-4.7-6.3c-1.4,1.1-3,2.1-4.6,2.9L76,6.3H68L53.2,40.6
	c-1.6-0.9-3.1-1.8-4.6-2.9L43.9,44c1.9,1.4,4,2.7,6.1,3.9l-7.7,17.8h8.6l4.2-9.8l4.2,9.8H68l-5.8-13.4c6.4,1.4,13.1,1.4,19.5,0
	L76,65.7h8.6l4.2-9.8l4.2,9.8h8.6L94,47.9z M60.5,43.7L72,17.1l11.5,26.6C76,46,68,46,60.5,43.7z"/>
</svg>
