<?xml version="1.0" encoding="utf-8"?>
<!-- Generator: Adobe Illustrator 26.5.2, SVG Export Plug-In . SVG Version: 6.00 Build 0)  -->
<svg version="1.1" id="_x30_" xmlns="http://www.w3.org/2000/svg" xmlns:xlink="http://www.w3.org/1999/xlink" x="0px" y="0px"
	 viewBox="0 0 108 72" style="enable-background:new 0 0 108 72;" xml:space="preserve">
<style type="text/css">
	.st0{fill:#C02126;}
	.st1{fill:#FFFFFF;}
</style>
<g>
	<g id="LINE_00000000188624670649710440000002884363254202455743_">
		<rect x="18" y="0" class="st0" width="72" height="72"/>
	</g>
	<g id="LINE_00000037682276987361602000000011683000931191819176_">
		<rect y="0" class="st0" width="108" height="72"/>
	</g>
	<path class="st1" d="M79.3,45.3c3.7-2.5,7-5.5,9.8-9l-6.1-5c-2.2,2.7-4.8,5.1-7.6,7.1L58,7.9H50L32.6,38.5c-2.9-2-5.4-4.4-7.6-7.1
		l-6.1,5c2.8,3.5,6.1,6.5,9.8,9L18,64.1h9.1L34,52l6.9,12.1H50L43,51.7c7.2,1.8,14.8,1.8,22,0L58,64.1h9.1L74,52l6.9,12.1H90
		L79.3,45.3z M39.5,42.3L54,16.9l14.5,25.3C59.2,46.2,48.8,46.2,39.5,42.3z"/>
</g>
</svg>
